HIERARCHY
ROOT hip
{
	OFFSET 0.000000 0.000000 0.000000 
	CHANNELS 6 Xposition Yposition Zposition Xrotation Zrotation Yrotation
	JOINT abdomen
	{
		OFFSET 0.000000 3.402643 0.000000 
		CHANNELS 3 Xrotation Zrotation Yrotation
		JOINT chest
		{
			OFFSET 0.000000 8.438565 -0.680529 
			CHANNELS 3 Xrotation Zrotation Yrotation
			JOINT neck
			{
				OFFSET 0.000000 10.207942 -0.272212 
				CHANNELS 3 Xrotation Zrotation Yrotation
				JOINT head
				{
					OFFSET 0.000000 3.130431 0.000000 
					CHANNELS 3 Xrotation Zrotation Yrotation
					End Site
					{
						OFFSET 0.000000 3.130435 0.000000 
					}
				}
			}
			JOINT lCollar
			{
				OFFSET 3.470700 6.669187 -0.816635 
				CHANNELS 3 Yrotation Zrotation Xrotation
				JOINT lShldr
				{
					OFFSET 3.198488 0.000000 0.000000 
					CHANNELS 3 Zrotation Yrotation Xrotation
					JOINT lForeArm
					{
						OFFSET 10.139888 0.000000 0.000000 
						CHANNELS 3 Yrotation Zrotation Xrotation
						JOINT lHand
						{
							OFFSET 8.370511 0.000000 0.000000 
							CHANNELS 3 Zrotation Yrotation Xrotation
							End Site
							{
								OFFSET 4.083176 0.000000 0.000000 
							}
						}
					}
				}
			}
			JOINT rCollar
			{
				OFFSET -3.470700 6.669187 -0.816635 
				CHANNELS 3 Yrotation Zrotation Xrotation
				JOINT rShldr
				{
					OFFSET -3.198488 0.000000 0.000000 
					CHANNELS 3 Zrotation Yrotation Xrotation
					JOINT rForeArm
					{
						OFFSET -10.139888 0.000000 0.000000 
						CHANNELS 3 Yrotation Zrotation Xrotation
						JOINT rHand
						{
							OFFSET -8.370511 0.000000 0.000000 
							CHANNELS 3 Zrotation Yrotation Xrotation
							End Site
							{
								OFFSET -4.083176 0.000000 0.000000 
							}
						}
					}
				}
			}
		}
	}
	JOINT lThigh
	{
		OFFSET 5.308129 -1.633274 1.361059 
		CHANNELS 3 Xrotation Zrotation Yrotation
		JOINT lShin
		{
			OFFSET -2.041588 -20.007561 0.000000 
			CHANNELS 3 Xrotation Zrotation Yrotation
			JOINT lFoot
			{
				OFFSET 0.000000 -19.190928 -1.224953 
				CHANNELS 3 Xrotation Yrotation Zrotation
				End Site
				{
					OFFSET 0.000000 -2.449906 4.627600 
				}
			}
		}
	}
	JOINT rThigh
	{
		OFFSET -5.308129 -1.633274 1.361059 
		CHANNELS 3 Xrotation Zrotation Yrotation
		JOINT rShin
		{
			OFFSET 2.041588 -20.007561 0.000000 
			CHANNELS 3 Xrotation Zrotation Yrotation
			JOINT rFoot
			{
				OFFSET 0.000000 -19.190928 -1.224953 
				CHANNELS 3 Xrotation Yrotation Zrotation
				End Site
				{
					OFFSET 0.000000 -2.449906 4.627600 
				}
			}
		}
	}
}
MOTION
Frames: 8
Frame Time: 0.016667
2.898148 41.966450 7.137850 2.723927 0.687382 107.653069 5.019135 -0.166015 0.136718 32.872456 -12.697609 37.856842 44.542500 20.802189 19.282907 -44.153030 -36.812164 -47.160854 -7.563974 -9.765673 -1.286547 -50.623474 54.607197 32.531349 -25.792063 5.202660 -12.586519 2.049519 -5.922943 -3.544847 2.013091 -1.609614 0.049053 18.451269 46.297104 -74.184624 10.842412 47.401802 70.081924 -3.236509 -0.172029 -3.474391 -31.628813 1.650016 -0.004380 33.385632 8.958777 -32.788280 -6.402774 -1.187855 -0.464073 16.792847 -8.473773 -0.496695 44.365704 15.391434 -12.703306 25.687841 1.856469 -5.876679 
2.819029 41.879196 7.209949 2.899040 0.248849 107.234589 5.019135 -0.166015 0.136718 33.587177 -12.292240 38.395535 44.393753 20.847488 19.212563 -44.180988 -36.934219 -47.069691 -7.246976 -9.865391 -1.249232 -51.551853 55.233223 31.950798 -25.670868 4.785170 -11.303211 2.039113 -5.913803 -3.543552 2.237924 -1.560213 0.058793 17.958342 46.190201 -74.717644 10.836837 47.567909 70.145073 -3.241881 -0.159336 -3.473519 -32.271713 1.562014 -0.013031 33.630138 8.764045 -32.161114 -5.935790 -1.181887 -0.455726 16.008734 -9.691858 -0.608759 46.477791 15.980037 -15.881129 20.579849 1.843420 -5.885392 
2.643158 41.872910 7.284952 2.967765 -0.145665 106.034508 5.019135 -0.166015 0.136718 34.083141 -11.887512 39.236923 43.836315 20.625795 18.689627 -43.960503 -36.660950 -46.853249 -7.216873 -9.906300 -1.239765 -52.928982 55.107136 30.554956 -25.540678 4.142928 -9.383628 2.027698 -5.905010 -3.532553 2.150203 -1.726318 0.058820 17.103287 46.313663 -75.762329 10.588031 47.586685 70.439552 -3.232949 -0.155741 -3.475146 -32.581272 1.747075 0.012544 33.422943 8.739394 -31.228594 -5.335497 -1.186372 -0.439890 14.966352 -11.324239 -0.699452 48.077915 16.573191 -23.655077 13.135872 1.830154 -5.873278 
2.467123 41.866734 7.360007 3.044993 -0.539927 104.824364 5.019135 -0.166015 0.136718 34.583969 -11.499682 40.091213 43.280746 20.409250 18.179323 -43.737419 -36.386570 -46.638176 -7.178481 -9.936420 -1.239867 -54.289566 54.950165 29.161900 -25.390064 3.507770 -7.468302 2.017294 -5.895868 -3.531265 2.053051 -1.901849 0.068602 16.237406 46.437317 -76.830132 10.357121 47.625782 70.721558 -3.237022 -0.149516 -3.481471 -32.903233 1.922902 0.001378 33.207741 8.709796 -30.278509 -4.746154 -1.167801 -0.435548 13.918921 -12.942233 -0.768220 49.586796 17.356899 -31.423744 5.706039 1.818619 -5.850853 
2.201661 41.915821 7.463917 3.062266 -0.854504 103.586884 5.019135 -0.166015 0.136718 35.072922 -10.815995 40.441174 42.439152 20.203720 17.537241 -43.345993 -36.205544 -46.141510 -7.105571 -10.093092 -1.249603 -55.363155 54.202770 27.762180 -25.642191 2.963947 -5.764683 2.017294 -5.895868 -3.531265 1.662653 -2.439708 0.058932 15.678365 47.058537 -77.609863 10.472665 47.552422 70.440269 -3.237022 -0.149516 -3.481471 -33.041481 2.381978 0.038894 32.595978 8.521388 -29.671646 -4.092578 -1.175628 -0.452283 12.821416 -14.636700 -0.895908 49.454235 17.547752 -36.224739 -1.103263 1.833463 -5.868840 
1.936176 41.965038 7.567854 3.086662 -1.167769 102.338112 5.019135 -0.166015 0.136718 35.558350 -10.137475 40.805515 41.606659 19.993206 16.907631 -42.941551 -36.026535 -45.650646 -7.030968 -10.250983 -1.249783 -56.382896 53.431274 26.408333 -25.885933 2.403799 -4.058643 2.017899 -5.905611 -3.531548 1.262313 -2.987206 0.049259 15.105009 47.673115 -78.411430 10.598036 47.479481 70.158920 -3.237022 -0.149516 -3.481471 -33.186935 2.811836 0.072632 31.990976 8.346197 -29.086685 -3.452517 -1.178253 -0.456223 11.733642 -16.320948 -1.002423 49.307953 17.713659 -41.008644 -7.904409 1.831413 -5.893239 
1.657097 42.082550 7.683629 3.244906 -1.283182 101.059380 5.019135 -0.166015 0.136718 36.004932 -9.401754 40.667625 40.926727 20.239767 16.703627 -42.788189 -36.158203 -44.499413 -8.325075 -9.320535 -1.341476 -59.872742 52.959015 23.017475 -26.636242 2.123003 -3.098839 2.039719 -5.923546 -3.543839 1.077034 -3.299865 0.049301 14.320508 48.116871 -79.393082 10.230567 47.287704 70.495842 -3.232437 -0.178255 -3.468067 -32.742966 3.212457 0.084693 30.810713 8.162194 -28.466959 -2.999193 -1.195331 -0.426251 10.943941 -18.010641 -1.123023 47.081837 16.826057 -41.566143 -10.806694 1.833851 -5.902704 
1.378009 42.200012 7.799488 3.396354 -1.393310 99.785019 5.019135 -0.166015 0.136718 36.439716 -8.665455 40.526703 40.251816 20.477179 16.499887 -42.620049 -36.292744 -43.353371 -9.613420 -8.398875 -1.411537 -63.261765 52.361164 19.707306 -27.383957 1.827861 -2.150558 2.061139 -5.951567 -3.547735 0.881989 -3.612531 0.049341 13.517233 48.560314 -80.390701 9.845266 47.075573 70.835442 -3.244933 -0.198138 -3.465663 -32.303066 3.613022 0.100067 29.604889 8.001593 -27.848310 -2.503411 -1.234973 -0.446847 10.165857 -19.715923 -1.223634 44.892445 15.933415 -42.059574 -13.688767 1.841090 -5.909586 
